# xmcd
#
# Track frame offsets: 
#        150
#        11821
#        23187
#        35293
#        45635
#        54677
#        67179
#        80547
#        94693
#        106854
#        119737
#        132094
#        144485
#        157361
#        170567
#        181276
#        193827
#        205677
#        218033
#        229621
#        241161
#        254167
#        266076
#        278438
#        290869
#
# Disc length: 3992 seconds
#
# Revision: 0
# Processed by: cddbd v1.5.2PL0 Copyright (c) Steve Scherf et al.
# Submitted via: ExactAudioCopy v1.0b3
#
DISCID=7d0f9619
DTITLE=Various Artist - Western Swing: Toe-Tapping Boot-Stomping Country (Dis
DTITLE=c 1)
DYEAR=2012
DGENRE=Country
TTITLE0=Bob Wills and His Texas Playboys - San Antonio Rose
TTITLE1=Bob Wills and His Texas Playboys - New Spanish Two-Step
TTITLE2=Bob Wills and His Texas Playboys - Time Changes Everything
TTITLE3=Bob Wills and His Texas Playboys - Bubbles In My Beer
TTITLE4=Bob Wills and His Texas Playboys - Keep A-Knockin', But You Can'
TTITLE4=t Come In
TTITLE5=Milton Brown and His Musical Brownies - Texas Hambone Blues
TTITLE6=Milton Brown and His Musical Brownies - Brownie's Stomp
TTITLE7=Cliff Bruner and His Boys - Jessie
TTITLE8=Jimmie Revard and His Oklahoma Playboys - Oh! Swing It
TTITLE9=Spade Cooley and His Orchestra - Shame On You
TTITLE10=Spade Cooley and His Orchestra - Detour
TTITLE11=Spade Cooley and His Orchestra - Swingin' The Devil's Dream
TTITLE12=Tex Williams - Smoke! Smoke! Smoke! (That Cigarette)
TTITLE13=Tex Williams - Never Trust A Woman
TTITLE14=Tex Williams - Wild Card
TTITLE15=Tex Williams - That's What I Like About The West
TTITLE16=Hank Thompson and His Brazos Valley Boys - She's Just A Whole L
TTITLE16=ot Like You
TTITLE17=Hank Thompson and His Brazos Valley Boys - The Wild Side Of Lif
TTITLE17=e
TTITLE18=Hank Penny - Talkin' Bout You
TTITLE19=Hank Penny - These Wild Wild Women
TTITLE20=Johnny Lee Wills and His Boys - Milk Cow Blues
TTITLE21=The Sunshine Boys - Gonna Get Tight
TTITLE22=Tex Atchison - You Don't Do Right By Me Anymore
TTITLE23=The Pairie Ramblers - Double Crossing Mama
TTITLE24=Bill Hughs and His Pals Of The Pecos - I'm Telling You
EXTD=
EXTT0=
EXTT1=
EXTT2=
EXTT3=
EXTT4=
EXTT5=
EXTT6=
EXTT7=
EXTT8=
EXTT9=
EXTT10=
EXTT11=
EXTT12=
EXTT13=
EXTT14=
EXTT15=
EXTT16=
EXTT17=
EXTT18=
EXTT19=
EXTT20=
EXTT21=
EXTT22=
EXTT23=
EXTT24=
PLAYORDER=
